<?xml version="1.0" encoding="UTF-8" standalone="no"?>
<svg
   height="800"
   width="1200"
   clip-rule="evenodd"
   fill-rule="evenodd"
   stroke-linejoin="round"
   stroke-miterlimit="1.4142"
   viewBox="-39.158565 -22.4785 339.37423 134.871"
   version="1.1"
   id="svg3665"
   sodipodi:docname="Reddit-Logo.wine.svg"
   inkscape:version="1.2.1 (9c6d41e410, 2022-07-14)"
   xmlns:inkscape="http://www.inkscape.org/namespaces/inkscape"
   xmlns:sodipodi="http://sodipodi.sourceforge.net/DTD/sodipodi-0.dtd"
   xmlns="http://www.w3.org/2000/svg"
   xmlns:svg="http://www.w3.org/2000/svg">
  <defs
     id="defs3669" />
  <sodipodi:namedview
     id="namedview3667"
     pagecolor="#505050"
     bordercolor="#ffffff"
     borderopacity="1"
     inkscape:showpageshadow="0"
     inkscape:pageopacity="0"
     inkscape:pagecheckerboard="1"
     inkscape:deskcolor="#505050"
     showgrid="false"
     inkscape:zoom="0.35649967"
     inkscape:cx="256.66223"
     inkscape:cy="-151.47279"
     inkscape:window-width="1920"
     inkscape:window-height="1027"
     inkscape:window-x="-8"
     inkscape:window-y="-8"
     inkscape:window-maximized="1"
     inkscape:current-layer="svg3665" />
  <g
     transform="translate(-397.20781,-210.74838)"
     id="g3657">
    <circle
       r="5.6869998"
       cy="40.998001"
       cx="249.77299"
       fill="#ff4500"
       id="circle3653"
       style="fill:#ff2d20;fill-opacity:1" />
    <path
       d="m 168.549,65.247 c 2.79,0 4.399,-2.092 4.292,-4.131 -0.053,-1.073 -0.161,-1.771 -0.268,-2.307 -1.717,-7.403 -7.725,-12.876 -14.861,-12.876 -8.476,0 -15.343,7.672 -15.343,17.114 0,9.442 6.867,17.114 15.343,17.114 5.312,0 9.121,-1.931 11.857,-4.989 1.341,-1.502 1.073,-3.809 -0.537,-4.936 -1.341,-0.912 -3.004,-0.59 -4.238,0.429 -1.18,1.02 -3.433,3.058 -7.082,3.058 -4.291,0 -7.939,-3.702 -8.744,-8.584 h 19.581 z m -10.89,-12.822 c 3.862,0 7.189,3.004 8.423,7.135 h -16.846 c 1.234,-4.184 4.56,-7.135 8.423,-7.135 z m -14.968,-3.112 c 0,-1.609 -1.18,-2.897 -2.682,-3.165 -4.668,-0.697 -9.067,1.019 -11.588,4.185 v -0.43 c 0,-1.985 -1.61,-3.218 -3.219,-3.218 -1.771,0 -3.219,1.448 -3.219,3.218 v 26.288 c 0,1.717 1.287,3.219 3.004,3.326 1.878,0.107 3.434,-1.341 3.434,-3.219 V 62.725 c 0,-6.008 4.506,-10.944 10.729,-10.246 h 0.644 c 1.609,-0.108 2.897,-1.503 2.897,-3.166 z m 110.3,3.434 c 0,-1.771 -1.448,-3.219 -3.218,-3.219 -1.771,0 -3.219,1.448 -3.219,3.219 v 23.551 c 0,1.771 1.448,3.219 3.219,3.219 1.77,0 3.218,-1.448 3.218,-3.219 z M 205.137,34.936 c 0,-1.771 -1.448,-3.219 -3.219,-3.219 -1.77,0 -3.218,1.448 -3.218,3.219 V 49.26 c -2.2,-2.2 -4.936,-3.273 -8.209,-3.273 -8.476,0 -15.343,7.672 -15.343,17.114 0,9.442 6.867,17.114 15.343,17.114 3.273,0 6.063,-1.127 8.262,-3.327 0.268,1.503 1.61,2.629 3.165,2.629 1.771,0 3.219,-1.448 3.219,-3.219 z M 190.545,73.83 c -4.936,0 -8.906,-4.774 -8.906,-10.729 0,-5.901 3.97,-10.73 8.906,-10.73 4.936,0 8.906,4.775 8.906,10.73 0,5.955 -4.024,10.729 -8.906,10.729 z m 48.176,-38.894 c 0,-1.771 -1.448,-3.219 -3.219,-3.219 -1.77,0 -3.219,1.448 -3.219,3.219 V 49.26 c -2.199,-2.2 -4.935,-3.273 -8.208,-3.273 -8.476,0 -15.343,7.672 -15.343,17.114 0,9.442 6.867,17.114 15.343,17.114 3.273,0 6.062,-1.127 8.262,-3.327 0.268,1.503 1.609,2.629 3.165,2.629 1.771,0 3.219,-1.448 3.219,-3.219 z M 224.075,73.83 c -4.936,0 -8.905,-4.774 -8.905,-10.729 0,-5.901 3.969,-10.73 8.905,-10.73 4.936,0 8.906,4.775 8.906,10.73 0,5.955 -3.97,10.729 -8.906,10.729 z M 269.3,76.352 V 52.425 h 2.844 c 1.502,0 2.843,-1.127 2.95,-2.683 0.108,-1.663 -1.233,-3.057 -2.843,-3.057 H 269.3 v -4.507 c 0,-1.717 -1.287,-3.219 -3.004,-3.326 -1.878,-0.107 -3.433,1.341 -3.433,3.219 v 4.667 h -2.683 c -1.502,0 -2.843,1.127 -2.95,2.683 -0.108,1.663 1.234,3.058 2.843,3.058 h 2.736 v 23.927 c 0,1.77 1.449,3.218 3.219,3.218 1.878,-0.107 3.272,-1.502 3.272,-3.272 z"
       fill="#222"
       fill-rule="nonzero"
       id="path3655"
       style="fill:#252a37;fill-opacity:1" />
  </g>
  <g
     transform="translate(-397.20781,-210.74838)"
     id="g3663">
    <circle
       r="44.957001"
       cy="55"
       cx="59"
       fill="#ff4500"
       id="circle3659"
       style="fill:#ff2d20;fill-opacity:1" />
    <path
       d="m 88.989,55 c 0,-3.648 -2.95,-6.545 -6.545,-6.545 -1.77,0 -3.38,0.697 -4.56,1.824 C 73.378,47.06 67.208,44.968 60.341,44.7 l 3.004,-14.056 9.764,2.092 c 0.108,2.468 2.146,4.453 4.668,4.453 2.575,0 4.667,-2.092 4.667,-4.668 0,-2.575 -2.092,-4.667 -4.667,-4.667 -1.824,0 -3.434,1.073 -4.185,2.629 l -10.89,-2.307 c -0.322,-0.054 -0.644,0 -0.859,0.161 -0.268,0.161 -0.429,0.429 -0.482,0.751 l -3.327,15.665 c -6.974,0.215 -13.251,2.307 -17.811,5.58 a 6.5883,6.5883 0 0 0 -4.56,-1.824 c -3.648,0 -6.545,2.95 -6.545,6.545 0,2.682 1.609,4.935 3.863,5.955 -0.108,0.643 -0.161,1.287 -0.161,1.985 0,10.085 11.749,18.294 26.234,18.294 14.485,0 26.234,-8.155 26.234,-18.294 0,-0.644 -0.054,-1.342 -0.161,-1.985 2.253,-1.02 3.862,-3.327 3.862,-6.009 z M 44.032,59.667 C 44.032,57.092 46.124,55 48.7,55 c 2.575,0 4.667,2.092 4.667,4.667 0,2.575 -2.092,4.668 -4.667,4.668 -2.576,0.053 -4.668,-2.093 -4.668,-4.668 z M 70.159,72.06 c -3.219,3.219 -9.335,3.434 -11.105,3.434 -1.824,0 -7.94,-0.269 -11.106,-3.434 -0.482,-0.483 -0.482,-1.234 0,-1.717 0.483,-0.482 1.234,-0.482 1.717,0 2.039,2.039 6.331,2.736 9.389,2.736 3.058,0 7.403,-0.697 9.388,-2.736 0.483,-0.482 1.234,-0.482 1.717,0 0.429,0.483 0.429,1.234 0,1.717 z M 69.3,64.388 c -2.575,0 -4.667,-2.092 -4.667,-4.667 0,-2.575 2.092,-4.667 4.667,-4.667 2.576,0 4.668,2.092 4.668,4.667 0,2.521 -2.092,4.667 -4.668,4.667 z"
       fill="#ffffff"
       fill-rule="nonzero"
       id="path3661" />
  </g>
</svg>
